<?xml version="1.0" encoding="iso-8859-1"?>
<!-- Uploaded to: SVG Repo, www.svgrepo.com, Generator: SVG Repo Mixer Tools -->
<svg height="800px" width="800px" version="1.1" id="Capa_1" xmlns="http://www.w3.org/2000/svg" xmlns:xlink="http://www.w3.org/1999/xlink" 
	 viewBox="0 0 197.925 197.925" xml:space="preserve">
<g>
	<g>
		<path style="fill:#010002;" d="M132.935,0.132c-0.061,0-6.832-0.132-13.17-0.132c-3.797,0-6.685,0.05-8.582,0.147
			c-3.944,0.193-6.277,5.007-6.08,12.576c0.168,7.111,2.695,14.763,7.845,14.763h6.7c6.381,0,11.57,5.2,11.57,11.581
			c0,6.399-5.189,11.595-11.57,11.595H81.303c-6.395,0-11.595-5.2-11.595-11.595c0-6.385,5.114-11.581,11.377-11.595
			c0,0,1.353,0.132,3.432,0.132c0.884,0,2.176-0.025,3.314-0.132l0.483,0.021c2.706,0,4.921-1.653,6.227-4.642
			c1.22-2.756,1.474-6.106,1.474-8.414c0-5.755-1.693-14.305-6.37-14.305H65.04c-27.06,0-49.08,22.017-49.08,49.08v99.632
			c0,27.06,22.021,49.08,49.08,49.08h67.859c27.06,0,49.066-22.021,49.066-49.08V49.213C181.965,22.153,159.973,0.132,132.935,0.132
			z M132.899,193.763H65.04c-24.776,0-44.918-20.142-44.918-44.918V49.213c0-24.762,20.142-44.922,44.918-44.922L89.477,4.27
			c1.113,0.676,3.371,8.221,1.922,14.799c-0.422,1.947-1.306,4.266-3.081,4.266l-0.426-0.011l-0.072,0.011
			c-1.088,0.075-2.19,0.122-3.264,0.122c-1.535,0-2.602-0.082-3.06-0.122l-0.193-0.011c-8.682,0-15.743,7.061-15.743,15.743
			S72.62,54.81,81.303,54.81h38.344c8.668,0,15.733-7.061,15.733-15.743s-7.065-15.743-15.733-15.743h-6.7
			c-1.392,0-3.543-4.173-3.711-10.701c-0.122-5.404,1.331-8.296,2.154-8.332c1.85-0.097,4.667-0.132,8.342-0.132
			c5.272,0,10.858,0.086,13.013,0.132h0.157c24.762,0,44.918,20.156,44.918,44.922v99.632
			C177.817,173.621,157.661,193.763,132.899,193.763z"/>
		<path style="fill:#010002;" d="M122.946,105.995l-10.797-1.571l-4.839-9.781c-1.582-3.203-4.778-5.186-8.346-5.186
			c-3.568,0-6.757,1.983-8.342,5.186l-4.839,9.781l-10.797,1.571c-3.529,0.508-6.41,2.935-7.519,6.338
			c-1.088,3.382-0.183,7.05,2.358,9.538l7.823,7.619l-1.84,10.751c-0.616,3.514,0.812,7,3.686,9.105
			c1.61,1.16,3.497,1.775,5.479,1.775c1.5,0,2.999-0.372,4.316-1.063l9.674-5.093l9.663,5.093c1.306,0.673,2.791,1.038,4.305,1.038
			c1.983,0,3.93-0.63,5.486-1.75c2.892-2.094,4.305-5.59,3.701-9.105l-1.85-10.751l7.823-7.619c2.552-2.487,3.457-6.156,2.358-9.538
			C129.356,108.929,126.478,106.514,122.946,105.995z M72.731,118.893c-1.417-1.378-1.911-3.407-1.296-5.286
			c0.605-1.882,2.201-3.225,4.148-3.504l12.841-1.865l0.132-0.025l5.791-11.753c0.87-1.764,2.638-2.867,4.62-2.867
			c1.972,0,3.747,1.102,4.61,2.867l5.755,11.642l0.047,0.107l12.963,1.886c1.961,0.279,3.543,1.621,4.159,3.504
			c0.619,1.875,0.107,3.908-1.303,5.286l-9.384,9.13l2.226,12.927c0.336,1.933-0.462,3.869-2.058,5.028
			c-1.51,1.102-3.747,1.267-5.415,0.387l-11.488-6.038l-0.111-0.061l-11.595,6.095c-1.668,0.88-3.905,0.712-5.418-0.387
			c-1.607-1.16-2.394-3.096-2.054-5.043l2.187-12.791l0.025-0.122L72.731,118.893z"/>
		<path style="fill:#010002;" d="M98.968,128.774c4.173,0,7.569-3.396,7.569-7.569s-3.396-7.555-7.569-7.555
			s-7.569,3.382-7.569,7.555S94.798,128.774,98.968,128.774z M98.968,117.794c1.886,0,3.411,1.525,3.411,3.411
			s-1.525,3.411-3.411,3.411s-3.421-1.525-3.421-3.411S97.085,117.794,98.968,117.794z"/>
	</g>
</g>
</svg>